<?xml version="1.0" encoding="UTF-8"?>
<svg version="1.1" xmlns="http://www.w3.org/2000/svg" width="180" height="180">
<path d="M0 0 C15.43474242 13.14999437 25.75956653 29.76512223 27.75 50.25 C29.14036119 72.42129535 22.7512933 90.87088037 8.66015625 107.75390625 C-3.55824111 120.83692018 -21.45394781 129.80244817 -39.4140625 130.5859375 C-41.23418402 130.61534493 -43.05464322 130.62788666 -44.875 130.625 C-45.83269287 130.62483887 -46.79038574 130.62467773 -47.77709961 130.62451172 C-57.00041891 130.4777051 -65.44348745 128.86677885 -73.90234375 125.0546875 C-76.64135557 124.11585816 -77.56501173 124.28951444 -80.25 125.25 C-81.92051683 126.52971151 -81.92051683 126.52971151 -83.4387207 128.19335938 C-84.03646805 128.81069946 -84.63421539 129.42803955 -85.25007629 130.06408691 C-85.88555893 130.73387573 -86.52104156 131.40366455 -87.17578125 132.09375 C-88.54319749 133.49910894 -89.91104972 134.90404377 -91.27929688 136.30859375 C-93.42460953 138.52832309 -95.5648724 140.75248392 -97.69702148 142.98486328 C-99.76000238 145.13863726 -101.84139107 147.27321771 -103.92578125 149.40625 C-104.55519119 150.07603882 -105.18460114 150.74582764 -105.83308411 151.43591309 C-109.78293866 155.45170392 -112.36194317 157.16968781 -118.25 157.25 C-127.74021793 155.34873393 -135.61943381 147.01513406 -140.8125 139.3125 C-143.72302087 134.63752739 -145.41227669 130.87514141 -144.25 125.25 C-139.03278763 117.23041898 -130.58959465 110.47840466 -123.8125 103.75 C-122.5915631 102.53408886 -121.37085808 101.31794484 -120.15039062 100.1015625 C-117.18625987 97.14835034 -114.21901042 94.19830602 -111.25 91.25 C-111.44770996 90.67064697 -111.64541992 90.09129395 -111.84912109 89.49438477 C-119.37252238 67.22980473 -120.8294757 45.61376586 -110.33203125 24.046875 C-100.6572958 5.64287897 -84.27479894 -6.65126664 -64.66015625 -12.83984375 C-42.29391898 -18.80929768 -18.38634169 -13.99771411 0 0 Z " fill="#212944" transform="translate(150.25,19.75)"/>
<path d="M0 0 C15.43474242 13.14999437 25.75956653 29.76512223 27.75 50.25 C29.14036119 72.42129535 22.7512933 90.87088037 8.66015625 107.75390625 C-3.55824111 120.83692018 -21.45394781 129.80244817 -39.4140625 130.5859375 C-41.23418402 130.61534493 -43.05464322 130.62788666 -44.875 130.625 C-45.83269287 130.62483887 -46.79038574 130.62467773 -47.77709961 130.62451172 C-57.00041891 130.4777051 -65.44348745 128.86677885 -73.90234375 125.0546875 C-76.64135557 124.11585816 -77.56501173 124.28951444 -80.25 125.25 C-81.92051683 126.52971151 -81.92051683 126.52971151 -83.4387207 128.19335938 C-84.03646805 128.81069946 -84.63421539 129.42803955 -85.25007629 130.06408691 C-85.88555893 130.73387573 -86.52104156 131.40366455 -87.17578125 132.09375 C-88.54319749 133.49910894 -89.91104972 134.90404377 -91.27929688 136.30859375 C-93.42460953 138.52832309 -95.5648724 140.75248392 -97.69702148 142.98486328 C-99.76000238 145.13863726 -101.84139107 147.27321771 -103.92578125 149.40625 C-104.55519119 150.07603882 -105.18460114 150.74582764 -105.83308411 151.43591309 C-109.78293866 155.45170392 -112.36194317 157.16968781 -118.25 157.25 C-127.74021793 155.34873393 -135.61943381 147.01513406 -140.8125 139.3125 C-143.72302087 134.63752739 -145.41227669 130.87514141 -144.25 125.25 C-139.03278763 117.23041898 -130.58959465 110.47840466 -123.8125 103.75 C-122.5915631 102.53408886 -121.37085808 101.31794484 -120.15039062 100.1015625 C-117.18625987 97.14835034 -114.21901042 94.19830602 -111.25 91.25 C-111.44770996 90.67064697 -111.64541992 90.09129395 -111.84912109 89.49438477 C-119.37252238 67.22980473 -120.8294757 45.61376586 -110.33203125 24.046875 C-100.6572958 5.64287897 -84.27479894 -6.65126664 -64.66015625 -12.83984375 C-42.29391898 -18.80929768 -18.38634169 -13.99771411 0 0 Z M-92.25 19.6875 C-99.29255497 28.78527529 -104.3408064 39.71150673 -105.25 51.25 C-105.33121094 52.25289062 -105.41242188 53.25578125 -105.49609375 54.2890625 C-106.11939297 69.81487947 -100.49387304 86.16511915 -90.5 98.125 C-80.06773912 108.93917409 -66.34371401 116.92502868 -51.11328125 117.5859375 C-40.57919105 117.75743803 -31.04216218 117.60055673 -21.25 113.25 C-20.32445312 112.84910156 -19.39890625 112.44820313 -18.4453125 112.03515625 C-3.80255323 104.87970023 6.68543763 92.54345801 12.07666016 77.24365234 C17.01210975 61.7143443 16.37614401 45.85210008 9.2421875 31.140625 C0.98755001 16.01352189 -10.86370751 5.67148711 -27.25 0.25 C-51.50833952 -6.51271902 -75.75888731 0.615717 -92.25 19.6875 Z " fill="#E15F10" transform="translate(150.25,19.75)"/>
<path d="M0 0 C5.30725469 3.38908961 8.83164268 8.49738584 11.0859375 14.33203125 C10.5909375 15.81703125 10.5909375 15.81703125 10.0859375 17.33203125 C7.21484375 18.71875 7.21484375 18.71875 3.6484375 20.01953125 C2.47410156 20.45652344 1.29976562 20.89351562 0.08984375 21.34375 C-2.9140625 22.33203125 -2.9140625 22.33203125 -4.9140625 22.33203125 C-5.5740625 21.34203125 -6.2340625 20.35203125 -6.9140625 19.33203125 C-8.72650048 16.99940715 -9.49692334 16.39718928 -12.46484375 15.93359375 C-14.97158729 15.95486739 -17.42148061 16.07067315 -19.9140625 16.33203125 C-19.9140625 18.31203125 -19.9140625 20.29203125 -19.9140625 22.33203125 C-18.7384375 22.70328125 -17.5628125 23.07453125 -16.3515625 23.45703125 C-14.53678242 24.07537946 -12.72465785 24.70153484 -10.9140625 25.33203125 C-9.69589844 25.74582031 -8.47773437 26.15960938 -7.22265625 26.5859375 C1.51546699 29.7027968 8.02319949 33.01840069 12.23046875 41.69140625 C14.66662179 49.21122112 13.82753704 57.91673226 10.54296875 65.04296875 C6.8736602 70.80761971 1.12987072 75.90047457 -5.48828125 77.9296875 C-16.64953293 79.7809096 -25.24860848 78.57368381 -34.6640625 72.58203125 C-39.98393817 67.26215558 -42.47828868 61.64142524 -43.9140625 54.33203125 C-38.60324969 51.93359966 -32.94784069 50.33203125 -27.1015625 50.33203125 C-23.84829105 51.81924106 -22.72592713 54.3330829 -20.9140625 57.33203125 C-18.54792794 58.51509853 -17.04625514 58.46557733 -14.4140625 58.45703125 C-13.62 58.45960937 -12.8259375 58.4621875 -12.0078125 58.46484375 C-9.85487716 58.46481121 -9.85487716 58.46481121 -7.9140625 57.33203125 C-7.9140625 55.68203125 -7.9140625 54.03203125 -7.9140625 52.33203125 C-12.89572665 49.67975635 -17.96844541 47.92821638 -23.34765625 46.31445312 C-30.5196235 44.04846347 -35.26711736 40.97468132 -38.9140625 34.33203125 C-41.51462434 27.70059855 -42.21821561 20.49925538 -40.07421875 13.6484375 C-36.97603266 6.79487432 -32.36576171 1.58433408 -25.61328125 -1.83203125 C-17.56578688 -4.32430881 -7.58783689 -3.5670396 0 0 Z " fill="#FAFAFB" transform="translate(120.9140625,38.66796875)"/>
<path d="M0 0 C0 3 0 3 -1.53125 4.82421875 C-2.1809375 5.43910156 -2.830625 6.05398437 -3.5 6.6875 C-4.1496875 7.31011719 -4.799375 7.93273437 -5.46875 8.57421875 C-5.9740625 9.04472656 -6.479375 9.51523437 -7 10 C-7.66 9.67 -8.32 9.34 -9 9 C-7.87895467 7.68412059 -6.75303035 6.37239647 -5.625 5.0625 C-4.99851562 4.33160156 -4.37203125 3.60070312 -3.7265625 2.84765625 C-2 1 -2 1 0 0 Z " fill="#DE8048" transform="translate(58,22)"/>
</svg>
